This is a tagged version of shnid: 97393

Grateful Dead 
April 26, 1969
Electric Theater  
Chicago, IL

Recording Info:
SBD -> Master Reel -> Dat (44.1k)

Transfer Info:
Dat (Sony R500) -> Sound Devices 744T -> Adobe Audition v1.5 ->
Samplitude Professional v10.2 -> FLAC
(3 Discs Audio / 2 Discs FLAC)

All Transfers and Mastering By Charlie Miller
charliemiller87@earthlink.net
February 11, 2009

Patch Info:
SBD -> Master Cassette -> Cassette -> Dat (shnid=96449) supplies:
Doin' That Rag (7:56 - 7:59) (no music just tuning)
Morning Dew (9:47 - end of track) (no music just tuning)
Sittin On Top Of The World (0:00 - 0:11)
Turn On Your Lovelight (11:41 - 21:09)
Feedback (0:12 - end of track)
What's Become Of The Baby (complete track)
Feedback (0:00 - 0:37)

Notes:
-- All disc changes are seamless
-- I extended the patch in Lovelight due to tape squeal on master reel
-- Thanks to Rob Eaton for the Dats
-- Thanks to Joe B. Jones for his help with the pitch correction
_________________________________________________________________________

--Setlist--
101-d1t01 - Introduction
102-d1t02 - Dupree's Diamond Blues
103-d1t03 - Mountains of the Moon ->
104-d1t04 - Dark Star Jam ->
105-d1t05 - China Cat Sunflower ->
106-d1t06 - Doin' That Rag
107-d1t07 - It Hurts Me Too ->
108-d1t08 - Hard to Handle
109-d1t09 - Cryptical Envelopment ->
110-d1t10 - Drums ->
111-d1t11 - The Other One ->
112-d1t12 - The Eleven ->
113-d1t13 - The Other One ->
114-d1t14 - It's a Sin
115-d1t15 - Morning Dew
116-d1t16 - Sittin on Top of the World
117-d2t01 - New Minglewood Blues
118-d2t02 - Silver Threads  & Golden Needles
119-d2t03 - It's All Over Now, Baby Blue
120-d2t04 - Saint Stephen ->
121-d2t05 - Turn On Your Lovelight

--Encore-- 
122-d3t01 - Viola Lee Blues ->
123-d3t02 - Caution Jam ->
124-d3t03 - Viola Lee Blues ->
125-d3t04 - Feedback ->
126-d3t05 - What's Become Of The Baby ->
127-d3t06 - Feedback ->
128-d3t07 - And We Bid You Good Night
________________________________________________________________________

Tagging notes:
Show information is embedded within the header of each flac file. 
It will display on any player capable of directly playing flac 
files. If converted to wav during processing, all tags will be 
stripped, however audio data will remain unaffected. If you must 
transcode to a lossy format, do so directly Flac > Lossy.
Use ffp to validate audio integrity.
Md5 values will change if tagging is altered.
B. Proctor 7-07-11
_________________________________________________________________________

SHNTOOL OUTPUT:
    length     expanded size   cdr  WAVE problems filename
     0:27.27        4826348    ---   --   -----   gd69-04-26d1t01.wav
     4:06.05       43406204    ---   --   -----   gd69-04-26d1t02.wav
     5:07.45       54260684    ---   --   -----   gd69-04-26d1t03.wav
     1:36.45       17040284    ---   --   -----   gd69-04-26d1t04.wav
     5:56.19       62843132    ---   --   -----   gd69-04-26d1t05.wav
     8:27.70       89599484    ---   --   -----   gd69-04-26d1t06.wav
     5:47.71       61377836    ---   --   -----   gd69-04-26d1t07.wav
     6:11.70       65609084    ---   --   -----   gd69-04-26d1t08.wav
     2:07.55       22532204    ---   --   -----   gd69-04-26d1t09.wav
     0:57.16       10092476    ---   --   -----   gd69-04-26d1t10.wav
     8:01.12       84876668    ---   --   -----   gd69-04-26d1t11.wav
     7:11.19       76073132    ---   --   -----   gd69-04-26d1t12.wav
     1:09.07       12188108    ---   --   -----   gd69-04-26d1t13.wav
     5:14.46       55497836    ---   --   -----   gd69-04-26d1t14.wav
    10:16.31      108735356    ---   --   -----   gd69-04-26d1t15.wav
     4:10.35       44182364    ---   --   -----   gd69-04-26d1t16.wav
     4:18.17       45551228    ---   --   -----   gd69-04-26d2t01.wav
     3:37.73       38450540    ---   --   -----   gd69-04-26d2t02.wav
     8:02.08       85043660    ---   --   -----   gd69-04-26d2t03.wav
     5:48.12       61415468    ---   --   -----   gd69-04-26d2t04.wav
    33:31.08      354759260    ---   --   -----   gd69-04-26d2t05.wav
    10:52.67      115170428    ---   --   -----   gd69-04-26d3t01.wav
     8:05.07       85570508    ---   --   -----   gd69-04-26d3t02.wav
     1:34.72       16750988    ---   --   -----   gd69-04-26d3t03.wav
     4:50.26       51217196    ---   --   -----   gd69-04-26d3t04.wav
     8:17.72       87840188    ---   --   -----   gd69-04-26d3t05.wav
     2:09.64       22906172    ---   --   -----   gd69-04-26d3t06.wav
     4:12.00       44452844    ---   --   -----   gd69-04-26d3t07.wav
   172:10.24     1822269680 B                     (totals for 28 files)
